<svg _ngcontent-ng-c3866005367="" id="eCkoWnf75mb1" xmlns="http://www.w3.org/2000/svg" xmlns:xlink="http://www.w3.org/1999/xlink" viewBox="0 0 713 422" shape-rendering="geometricPrecision" text-rendering="geometricPrecision" class="XXXX ng-tns-c3866005367-2"><path _ngcontent-ng-c3866005367="" d="M656.642,413.351L596.6,421.384l-93.919-29.789L432.14,379.78v-.025l-41.961-2.642-3.856,7.222-5.31,9.897-8.188-7.689-2.378-2.043-2.443-1.692-2.47-1.377-2.536-1.073-2.562-.8-2.615-.542-2.655-.314-2.694-.108-2.721.082-2.774.243-2.8.381-2.826.49-2.866.593-2.893.666-2.932.712-2.945.738-2.972.743-2.998.722-3.011.676-3.051.614-3.051.526-3.077.413-3.091.284-3.104.123-3.117-.051-3.117-.253-3.143-.479-3.144-.728-3.156-.996-3.157-1.29-3.156-1.605-3.157-1.939-1.07-.077-1.083-.088-1.07-.099-1.07-.108-1.069-.123-1.057-.135-1.057-.144-1.069-.165-1.057-.17-1.057-.186-1.043-.196-1.057-.211-1.043-.227-1.03-.243-1.044-.252-1.03-.269-151.319,43.053-61.1247-8.476L237.169,341.881l1.295.33l1.294.319l1.294.3l1.308.284l1.308.263l1.32.252l1.308.233l1.334.211l1.321.201l1.32.186l1.334.165l1.334.155l1.347.134l1.334.125l1.334.108l1.347.098l3.95,2.425l3.949,2.006l3.949,1.61l3.936,1.248l3.935.909l3.91.598l3.909.314l3.897.068l3.883-.155l3.869-.351l3.844-.521l3.817-.655l3.804-.768l3.764-.852l3.751-.904l3.711-.923l3.685-.918l3.658-.893l3.619-.83l3.58-.737l3.539-.625l3.5-.474l3.461-.3l3.407-.098l3.368.128l3.315.393l3.262.681l3.21,1.001l3.17,1.341l3.09,1.718l3.051,2.121l2.985,2.548l12.362-.774l3.91-7.454l7.634-3.824l56.066.222v.032l84.78,2.382l117.811,68.417Z" clip-rule="evenodd" fill-rule="evenodd" class="ng-tns-c3866005367-2"></path><path _ngcontent-ng-c3866005367="" d="M666.705,221.5l46.161,14.642-56.225,177.209-117.389-37.244-88.187-14.766v-.036l-52.434-3.296-4.847,9.028-6.63,12.367-10.223-9.612c-31.487-29.589-73.632,19.151-115.764-9.106-7.185-.464-14.278-1.527-21.146-3.364L50.8624,411.143L0,232.336l45.4738-12.945L3.63208,54.6106L88.1738,33.1378L99.704,47.0731l3.46-17.7431L187.838,7.82675l4.834,19.04275l3.54-14.8321l66.302-7.61556-.027-2.19767l21.463-.26288l1.822-.21128.093.18484l156.246-1.934862.132,10.757612c3.724-1.1253,7.541-1.98119,11.437-2.58478c11.227-1.7434,22.783-1.50701,34.05-.24304c12.401,1.40396,24.909,4.04552,36.466,8.87952c4.398,1.8411,8.651,3.9873,12.666,6.4743l2.641-10.5092l78.361,19.7189l90.67,22.8187L666.705,221.5Z" clip-rule="evenodd" fill="#231f20" fill-rule="evenodd" class="ng-tns-c3866005367-2"></path><path _ngcontent-ng-c3866005367="" d="M569.025,224.39l103.296,32.766-10.196,32.127-72.232-22.918-3.249,10.216l67.715,21.477-9.774,30.811-67.702-21.482-3.302,10.38l72.246,22.917-10.197,32.127-103.296-32.772L569.025,224.39Z" fill="#fff" class="ng-tns-c3866005367-2"></path><path _ngcontent-ng-c3866005367="" d="M488.24,334.828l20.036-119.663l32.147,5.376-20.049,119.667-32.134-5.38Z" fill="#fff" class="ng-tns-c3866005367-2"></path><path _ngcontent-ng-c3866005367="" d="M450.266,207.334l37.258,2.342L431.907,327.75l-16.509-1.037l1.268-2.359l4.424-8.254-7.568-5.525c-10.962-7.997-21.951-11.588-32.952-12.269L352.213,211.74l1.902-3.678h3.777l4.676,8.997h27.577l22.625,73.988l37.496-83.713Z" fill="#fff" class="ng-tns-c3866005367-2"></path><path _ngcontent-ng-c3866005367="" d="M153.519,348.371l-25.82,7.346-37.8269-44.585L104.44,362.337l-31.3416,8.915L39.8945,254.551l37.3908-10.639l48.9207,55.983l12.138-73.353l37.523-10.675l33.204,116.701-31.342,8.915-14.661-51.534-9.549,58.422Z" fill="#fff" class="ng-tns-c3866005367-2"></path><path _ngcontent-ng-c3866005367="" d="M141.27,163.877l-23.087,5.872-32.438-40.433l11.6225,45.716-28.0264,7.119L42.873,77.9561l33.4417-8.4925L118.288,120.261l12.64-64.6707l33.574-8.5228L190.956,151.263l-28.026,7.114-11.689-46.01-9.971,51.51ZM267.006,36.4037L318.079,138.438l-33.296,3.822-8.585-17.195-42.792,4.912-4.478,18.702-33.045,3.797L222.364,41.5322l44.642-5.1285ZM240.102,98.0712l22.321-2.5636-14.436-26.7097-7.885,29.2733Zm55.075-63.9629l115.052-1.4199.436,35.5218-43.07.531.739,59.0938h-28.806l-.726-58.7372-43.189.5361-.436-35.5256Zm188.948,5.9064c10.844,1.2283,20.049,3.4155,27.604,6.5787c7.555,3.1619,13.353,7.1505,17.381,11.974c4.042,4.8234,6.762,10.1896,8.189,16.0973c1.413,5.917,1.69,12.6238.845,20.131L508.678,91.478c-.026-.5165-.092-1.1913-.211-2.0274-.119-.836-.687-2.3113-1.691-4.4271-1.017-2.1146-2.417-4.0706-4.213-5.8655s-4.623-3.5502-8.466-5.2672c-3.844-1.7183-8.387-2.874-13.657-3.467-4.688-.527-8.822-.5323-12.428-.0106-3.593.5151-6.485,1.3723-8.651,2.5689-2.179,1.1927-3.989,2.8172-5.415,4.8604-1.44,2.0485-2.483,4.0864-3.13,6.1191-.648,2.0326-1.11,4.3175-1.4,6.856-.397,3.5502-.291,6.7478.303,9.5864.595,2.842,1.783,5.52,3.58,8.033c1.809,2.517,4.53,4.591,8.175,6.237s8.176,2.77,13.604,3.379c5.587.63,10.5.671,14.726.119c4.227-.552,7.357-1.429,9.417-2.642c2.048-1.207,3.712-2.481,4.993-3.823c1.268-1.351,2.047-2.523,2.324-3.519l.423-1.49l29.479,3.317c-.581,5.175-1.651,9.808-3.183,13.894-1.545,4.091-3.896,7.96-7.066,11.614-3.156,3.652-7.039,6.552-11.649,8.703-4.623,2.151-10.473,3.627-17.553,4.421-7.092.795-15.188.676-24.315-.35-11.187-1.26-20.432-3.353-27.775-6.284-7.331-2.931-13.023-6.914-17.078-11.944-4.054-5.025-6.709-10.845-7.964-17.464-1.255-6.609-1.347-14.5853-.304-23.9178c1.136-10.0404,3.355-18.4958,6.67-25.3677s7.726-12.1814,13.221-15.9271c5.507-3.7456,11.9-6.1851,19.191-7.321c7.277-1.1292,15.783-1.1503,25.49-.0567Zm157.17,31.6731l28.04,7.0567-26.23,104.2525-28.053-7.058l9.126-36.237-50.307-12.661-9.127,36.237-28.04-7.062L562.935,51.9688l28.053,7.0582-9.087,36.083l50.308,12.666l9.086-36.0882Z" fill="#fff" class="ng-tns-c3866005367-2"></path><path _ngcontent-ng-c3866005367="" d="M367.809,343.816c3.619-9.277,7.238-18.558,10.857-27.839c7.66.918,15.281,3.616,22.796,8.858-5.005,9.581-10.011,19.16-15.03,28.741-6.142-5.127-12.362-8.177-18.623-9.76Zm-44.39-18.764c-.264.119-.529.232-.78.355-28.277,12.888-56.541,25.636-83.762,5.773l2.998,2.111.04.021.026.02c.423.283.845.557,1.281.825.423.316.846.625,1.268.939l-.568-.366l1.902,1.337c7.027,4.56,14.119,6.959,21.264,7.811c3.197,3.605,6.393,7.212,9.602,10.808-4.754-1.202-9.483-3.24-14.158-6.393.37.31.753.614,1.122.919l.014.011.026.014.013.016.027.011.013.014.013.016.026.016.027.016.013.014.013.016.027.016.013.016.026.009.013.016.014.016.026.014.013.011.027.016.026.016.013.014.014.016.026.016.013.016.027.014.013.016.039.027-.013-.006.027.02c18.781,14.462,38.196,9.499,57.624,4.411.185-.056.383-.097.568-.154c20.908-5.464,41.815-10.824,61.917,8.079c7.634-14.229,15.255-28.453,22.876-42.687-27.208-19.858-55.472-7.11-83.749,5.784Zm-58.338,25.202c-.41-.315-.806-.63-1.215-.939.528.361,1.056.707,1.585,1.037.396.314.779.63,1.162.939-.502-.335-1.03-.681-1.532-1.037Zm2.43,1.6c-.383-.316-.766-.63-1.162-.945.541.315,1.07.62,1.598.908.37.316.739.63,1.109.949-.515-.294-1.03-.593-1.545-.912Zm2.43,1.397c-.356-.319-.726-.634-1.083-.953.528.278,1.057.536,1.585.783.343.321.7.646,1.057.96-.515-.248-1.03-.511-1.559-.79Zm2.457,1.213c-.357-.32-.7-.645-1.044-.97.529.238,1.057.46,1.585.666.344.33.674.66,1.017.98-.528-.211-1.043-.439-1.558-.676Zm2.443,1.036c-.33-.334-.66-.664-.99-.994.541.195,1.069.386,1.611.556.304.335.634.666.951,1.001-.528-.181-1.044-.366-1.572-.563Zm2.457.863c-.304-.341-.608-.676-.925-1.017.529.16,1.057.31,1.598.449.291.346.595.681.899,1.026-.529-.149-1.057-.298-1.572-.458Zm2.47.691c-.304-.346-.595-.686-.885-1.032.541.124,1.07.243,1.611.346.277.35.555.701.845,1.048-.528-.103-1.056-.228-1.571-.362Zm2.469.546c-.29-.35-.554-.706-.832-1.061.542.092,1.07.174,1.612.252.264.36.528.722.792,1.083-.528-.077-1.057-.171-1.572-.274Zm2.47.403c-.264-.36-.515-.727-.766-1.099.529.062,1.07.125,1.598.165.251.372.489.748.74,1.12-.528-.051-1.057-.113-1.572-.186Zm2.47.268c-.238-.381-.475-.752-.713-1.134.541.03,1.083.062,1.611.076.225.387.449.769.687,1.161-.528-.025-1.057-.062-1.585-.103Zm2.483.135c-.211-.387-.436-.774-.66-1.171.541.015,1.083.015,1.624.005.198.403.41.799.621,1.196-.528,0-1.057-.01-1.585-.03Zm2.483.03c-.198-.408-.396-.809-.594-1.217.528-.016,1.07-.036,1.624-.068.172.414.37.826.555,1.245-.528.015-1.057.03-1.585.04Zm2.483-.087c-.172-.418-.37-.836-.541-1.254.541-.041,1.083-.082,1.624-.134.172.423.344.856.502,1.285-.528.041-1.043.072-1.585.103Zm2.496-.186c-.158-.433-.33-.861-.488-1.3.541-.062,1.083-.124,1.624-.191.145.438.304.888.449,1.326-.528.062-1.056.114-1.585.165Zm2.497-.273c-.146-.449-.291-.898-.436-1.351.541-.078,1.083-.162,1.624-.243.132.459.264.917.396,1.377-.528.078-1.056.149-1.584.217Zm2.496-.357c-.132-.463-.251-.928-.383-1.392.541-.094,1.083-.197,1.624-.3.119.481.238.955.344,1.429-.529.094-1.057.181-1.585.263Zm2.496-.428c-.092-.479-.211-.964-.33-1.443.555-.114,1.083-.222,1.638-.341.092.495.185.985.29,1.48-.541.103-1.056.212-1.598.304Zm2.51-.485c-.093-.505-.185-1.006-.278-1.501.542-.123,1.083-.247,1.625-.377.079.511.158,1.023.251,1.538-.542.113-1.07.232-1.598.34Zm2.509-.546c-.079-.517-.159-1.037-.225-1.554.542-.133,1.083-.268,1.625-.401.066.526.119,1.057.185,1.584-.528.124-1.07.246-1.585.371Zm2.496-.593c-.053-.533-.106-1.074-.158-1.605.541-.14,1.083-.284,1.624-.428.04.547.093,1.099.132,1.64-.541.134-1.07.268-1.598.393Zm2.51-.62c-.04-.557-.08-1.109-.106-1.667.542-.144,1.083-.293,1.625-.443.026.568.052,1.13.079,1.693-.542.144-1.083.279-1.598.417Zm2.496-.655c-.013-.573-.027-1.145-.053-1.713.555-.16,1.096-.309,1.638-.464c0,.583.013,1.165.013,1.754-.528.144-1.057.283-1.598.423Zm2.509-.671c0-.588,0-1.181,0-1.77.555-.154,1.097-.314,1.638-.469-.013.604-.026,1.208-.04,1.811-.528.144-1.056.284-1.598.428Zm-74.002-17.727c-.422-.309-.845-.623-1.268-.939.687.413,1.374.8,2.047,1.166.41.314.819.63,1.229.934-.674-.366-1.347-.753-2.008-1.161Zm3.144,1.775c-.397-.309-.806-.619-1.202-.934.686.346,1.36.676,2.047.986.383.314.779.63,1.175.944-.673-.314-1.347-.645-2.02-.996Zm3.169,1.512c-.383-.315-.766-.63-1.149-.939.674.288,1.361.556,2.048.82.369.309.739.629,1.122.949-.687-.258-1.347-.537-2.021-.83Zm3.17,1.259c-.369-.321-.726-.641-1.096-.96.687.238,1.36.459,2.047.665.357.32.713.634,1.07.961-.674-.208-1.347-.43-2.021-.666Zm3.183,1.005c-.343-.325-.7-.65-1.043-.969.687.186,1.373.356,2.06.511.33.325.661.655,1.004.98-.674-.16-1.36-.33-2.021-.522Zm3.183.779c-.33-.33-.66-.665-.99-.99.687.134,1.373.259,2.06.362.33.335.634.669.964,1.005-.686-.114-1.36-.237-2.034-.377Zm3.197.552c-.317-.34-.621-.676-.938-1.01.7.092,1.373.165,2.073.226.304.346.595.687.898,1.027-.673-.062-1.36-.149-2.033-.243Zm3.196.346c-.291-.346-.581-.692-.885-1.042.7.052,1.387.088,2.073.103.291.352.568.702.859,1.053-.687-.021-1.374-.062-2.047-.114Zm3.209.15c-.277-.356-.554-.712-.832-1.067.7.005,1.387-.006,2.087-.027.264.362.528.723.779,1.083-.673.016-1.347.016-2.034.011Zm3.21-.041c-.251-.366-.515-.733-.766-1.099.7-.036,1.386-.083,2.086-.14.238.378.476.754.727,1.12-.687.057-1.361.092-2.047.119Zm3.222-.212c-.237-.381-.475-.758-.713-1.135.687-.072,1.387-.155,2.087-.247.225.387.449.774.674,1.161-.687.087-1.361.159-2.048.221Zm3.223-.376c-.211-.392-.449-.785-.66-1.177.7-.103,1.386-.216,2.086-.346.212.403.423.806.621,1.202-.673.114-1.374.218-2.047.321Zm3.223-.527c-.198-.407-.397-.81-.595-1.218.687-.133,1.387-.284,2.087-.433.185.408.383.826.568,1.239-.687.144-1.374.279-2.06.412Zm3.235-.671c-.184-.417-.369-.84-.541-1.259.687-.159,1.387-.335,2.087-.52.171.433.343.856.515,1.289-.687.165-1.374.336-2.061.49Zm3.236-.794c-.158-.433-.33-.866-.488-1.305.7-.191,1.4-.392,2.1-.599.158.449.303.893.462,1.336-.687.197-1.387.387-2.074.568Zm3.249-.914c-.145-.447-.29-.896-.449-1.346.714-.211,1.4-.438,2.1-.665.146.459.278.918.41,1.377-.687.217-1.374.434-2.061.634Zm3.236-1.015c-.119-.465-.251-.929-.383-1.394.713-.241,1.4-.484,2.1-.731.119.479.238.953.357,1.429-.687.236-1.374.469-2.074.696Zm3.249-1.11c-.105-.484-.211-.969-.33-1.45.713-.252,1.413-.515,2.1-.783.106.495.211.99.304,1.486-.687.257-1.387.504-2.074.747Zm3.263-1.191c-.106-.501-.185-.996-.278-1.497.7-.273,1.4-.546,2.1-.83.08.506.159,1.021.238,1.532-.687.268-1.374.531-2.06.795Zm3.249-1.264c-.066-.511-.146-1.037-.225-1.543.713-.294,1.4-.583,2.113-.877.053.537.119,1.062.185,1.589-.7.279-1.387.558-2.073.831Zm3.249-1.321c-.053-.532-.106-1.068-.159-1.605.7-.294,1.413-.593,2.1-.892.04.541.093,1.088.132,1.635-.686.294-1.386.584-2.073.862Zm3.262-1.358c-.04-.557-.079-1.113-.106-1.66.7-.31,1.4-.619,2.114-.93.013.568.039,1.131.066,1.703-.7.294-1.387.589-2.074.887Zm3.249-1.402c-.013-.573-.026-1.145-.04-1.718.7-.315,1.4-.62,2.1-.945.014.589.014,1.177.014,1.759-.687.306-1.387.604-2.074.904Zm3.262-1.424c0-.594,0-1.182.013-1.775.687-.309,1.401-.63,2.101-.95-.014.604-.027,1.207-.04,1.811-.687.305-1.387.609-2.074.914Zm-39.979,25.785c-2.958-3.724-5.93-7.445-8.902-11.164c7.687.351,15.427-.955,23.206-3.194c1.545,4.752,3.104,9.498,4.649,14.239-6.34,1.001-12.666,1.239-18.953.119Zm22.043-.655c-1.307-4.958-2.628-9.911-3.949-14.858c7.78-2.513,15.585-5.825,23.391-9.189-.119,6.336-.211,12.677-.33,19.016-6.366,1.921-12.759,3.803-19.112,5.031Zm21.238-2.074c.04-.614.053-1.233.079-1.847.555-.155,1.097-.309,1.638-.464-.039.624-.079,1.254-.119,1.884-.528.138-1.056.282-1.598.427Zm2.51-.676c.052-.634.092-1.269.145-1.903.528-.151,1.083-.31,1.624-.46-.052.645-.118,1.291-.171,1.935-.528.144-1.07.284-1.598.428Zm2.509-.665c.066-.65.132-1.305.198-1.96.542-.151,1.07-.3,1.625-.444-.079.66-.146,1.331-.225,1.997-.541.133-1.07.273-1.598.407Zm2.51-.645c.079-.671.158-1.347.237-2.013.555-.144,1.096-.288,1.638-.428-.092.682-.185,1.367-.277,2.049-.542.135-1.07.263-1.598.392Zm2.509-.609c.093-.696.198-1.377.304-2.069.541-.139,1.083-.278,1.624-.407-.105.696-.224,1.402-.343,2.105-.528.118-1.057.242-1.585.371Zm2.496-.573c.119-.707.238-1.418.357-2.125.554-.124,1.096-.248,1.624-.371-.132.712-.264,1.434-.396,2.151-.515.114-1.057.222-1.585.345Zm2.496-.531c.146-.722.278-1.445.423-2.173.542-.117,1.083-.225,1.625-.339-.146.737-.304,1.475-.449,2.212-.529.094-1.07.197-1.599.3Zm2.51-.465c.158-.742.304-1.486.462-2.223.555-.108,1.083-.211,1.638-.299-.172.748-.343,1.507-.515,2.254-.515.089-1.057.176-1.585.268Zm2.496-.401c.172-.764.344-1.518.528-2.281.542-.087,1.083-.171,1.625-.247-.185.768-.37,1.537-.568,2.311-.515.066-1.057.139-1.585.217Zm2.496-.331c.198-.774.383-1.547.581-2.321.542-.073,1.084-.135,1.625-.192-.211.779-.409,1.569-.621,2.348-.528.052-1.056.109-1.585.165Zm2.497-.243c.211-.789.422-1.578.634-2.368.541-.056,1.083-.097,1.624-.133-.238.799-.449,1.594-.674,2.398-.528.027-1.056.068-1.584.103Zm2.496-.144c.224-.805.449-1.61.673-2.414.542-.032,1.083-.057,1.625-.073-.238.815-.489,1.625-.727,2.441-.515.004-1.043.02-1.571.046Zm2.483-.046c.251-.821.489-1.647.739-2.462.542-.005,1.083-.005,1.612.011-.264.82-.515,1.646-.779,2.476-.529-.021-1.044-.025-1.572-.025Zm2.483.061c.264-.829.528-1.665.792-2.496.542.016,1.083.046,1.625.076-.291.842-.568,1.683-.845,2.519-.529-.042-1.044-.073-1.572-.099Zm2.47.181c.29-.841.581-1.687.858-2.528.542.041,1.083.098,1.612.16-.291.857-.595,1.702-.885,2.554-.529-.067-1.057-.124-1.585-.186Zm2.483.32c.304-.856.594-1.717.898-2.575.541.084,1.083.166,1.624.258-.317.862-.634,1.718-.951,2.585-.528-.103-1.056-.185-1.571-.268Zm2.47.454c.33-.867.634-1.733.964-2.606.528.108,1.069.222,1.598.357-.33.866-.661,1.743-.991,2.606-.528-.125-1.056-.249-1.571-.357Zm2.469.598c.344-.877.674-1.754,1.017-2.631.529.14,1.07.295,1.598.449-.356.883-.713,1.765-1.056,2.647-.515-.165-1.044-.319-1.559-.465Zm2.457.758c.357-.886.713-1.768,1.07-2.65.528.17,1.07.35,1.611.546-.383.888-.753,1.785-1.123,2.672-.515-.206-1.043-.392-1.558-.568Zm2.457.925c.369-.893.752-1.786,1.122-2.679.528.212,1.07.434,1.598.671-.383.893-.779,1.786-1.162,2.677-.515-.236-1.043-.458-1.558-.669Zm2.443,1.088c.396-.893.792-1.791,1.189-2.688.528.247,1.056.506,1.585.784-.41.898-.806,1.801-1.215,2.698-.516-.273-1.031-.536-1.559-.794Zm2.443,1.285c.41-.903.832-1.801,1.242-2.703.528.288,1.056.587,1.585.902-.423.903-.845,1.811-1.268,2.714-.528-.314-1.044-.625-1.559-.913Zm2.444,1.476c.422-.904.858-1.816,1.294-2.72.515.336,1.057.682,1.572,1.037-.436.909-.872,1.816-1.321,2.719-.515-.356-1.03-.712-1.545-1.036Zm2.43,1.67c.449-.902.898-1.81,1.334-2.723.528.382,1.057.769,1.585,1.175-.449.909-.925,1.812-1.374,2.725-.528-.408-1.03-.799-1.545-1.177Zm2.417,1.884c.475-.908.938-1.811,1.4-2.718.528.422,1.057.861,1.572,1.32-.476.902-.951,1.811-1.427,2.713-.515-.449-1.017-.887-1.545-1.315Zm-58.391-30.357c.027-.614.04-1.233.079-1.847.7-.32,1.401-.634,2.114-.949-.053.624-.093,1.259-.132,1.882-.687.306-1.374.609-2.061.914Zm3.249-1.434c.053-.63.093-1.264.146-1.904.7-.315,1.4-.624,2.1-.934-.053.646-.119,1.29-.172,1.935-.687.299-1.374.603-2.074.903Zm3.263-1.413c.066-.657.132-1.306.184-1.961.7-.31,1.414-.62,2.114-.924-.08.666-.159,1.326-.225,1.997-.7.294-1.373.588-2.073.888Zm3.262-1.388c.079-.671.158-1.347.238-2.018.7-.304,1.4-.599,2.113-.897-.093.68-.198,1.367-.291,2.047-.687.284-1.373.568-2.06.868Zm3.249-1.353c.106-.69.211-1.383.304-2.068.7-.289,1.4-.584,2.1-.866-.106.701-.225,1.402-.331,2.104-.686.273-1.373.546-2.073.83Zm3.249-1.305c.132-.696.238-1.408.357-2.119.7-.279,1.413-.558,2.113-.831-.119.722-.264,1.443-.383,2.161-.7.258-1.387.527-2.087.789Zm3.249-1.228c.145-.726.291-1.454.423-2.177.713-.268,1.4-.527,2.1-.784-.146.738-.291,1.475-.436,2.208-.7.249-1.387.496-2.087.753Zm3.262-1.161c.159-.747.304-1.49.476-2.233.7-.247,1.387-.49,2.087-.728-.159.754-.331,1.507-.502,2.255-.687.232-1.374.459-2.061.706Zm3.249-1.083c.172-.758.344-1.516.529-2.276.7-.231,1.386-.447,2.086-.669-.184.774-.369,1.542-.554,2.311-.687.201-1.374.417-2.061.634Zm3.236-.98c.198-.774.396-1.548.581-2.322.7-.206,1.4-.407,2.1-.598-.211.784-.409,1.568-.607,2.357-.7.181-1.374.372-2.074.563Zm3.236-.872c.225-.789.423-1.579.647-2.373.687-.181,1.4-.357,2.087-.522-.211.806-.449,1.605-.66,2.405-.687.155-1.374.32-2.074.49Zm3.249-.754c.225-.799.449-1.603.687-2.409.7-.154,1.387-.304,2.087-.438-.238.815-.476,1.631-.727,2.44-.673.13-1.373.269-2.047.407Zm3.236-.613c.238-.816.489-1.641.74-2.456.7-.124,1.387-.242,2.087-.345-.265.826-.516,1.655-.78,2.486-.687.094-1.373.202-2.047.315Zm3.209-.47c.278-.836.542-1.667.806-2.501.7-.099,1.4-.176,2.087-.243-.277.841-.555,1.677-.832,2.522-.687.057-1.374.135-2.061.222Zm3.236-.319c.278-.847.555-1.692.846-2.539.7-.057,1.386-.103,2.086-.133-.29.845-.594,1.702-.898,2.547-.673.032-1.36.068-2.034.125Zm3.21-.155c.304-.857.607-1.713.911-2.57.7-.02,1.387-.031,2.074-.02-.304.861-.621,1.724-.938,2.59-.674-.016-1.36-.011-2.047,0Zm3.222.03c.317-.866.634-1.738.951-2.604.7.025,1.387.057,2.074.098-.33.877-.66,1.743-.991,2.62-.686-.051-1.36-.082-2.034-.114Zm3.197.217c.33-.877.673-1.754,1.017-2.631.7.062,1.373.135,2.073.233-.356.877-.713,1.759-1.056,2.641-.674-.092-1.361-.17-2.034-.243Zm3.196.424c.356-.888.713-1.77,1.07-2.657.686.108,1.387.227,2.073.366-.37.887-.739,1.775-1.109,2.662-.674-.135-1.361-.263-2.034-.371Zm3.196.629c.37-.888.753-1.785,1.123-2.672.687.149,1.373.325,2.06.506-.383.896-.766,1.795-1.162,2.687-.674-.191-1.347-.361-2.021-.521Zm3.183.861c.396-.902.793-1.795,1.176-2.688.7.202,1.373.419,2.06.655-.409.898-.806,1.802-1.215,2.699-.674-.237-1.347-.459-2.021-.666Zm3.183,1.095c.396-.904.806-1.807,1.229-2.704.686.258,1.36.531,2.047.82-.423.908-.846,1.811-1.268,2.714-.674-.294-1.347-.567-2.008-.83Zm3.157,1.346c.436-.899.858-1.811,1.281-2.715.687.311,1.374.641,2.06.987-.449.907-.898,1.811-1.32,2.723-.674-.351-1.348-.681-2.021-.995Zm3.17,1.604c.435-.908.885-1.81,1.32-2.719.687.367,1.374.759,2.047,1.161-.449.914-.911,1.821-1.373,2.725-.674-.409-1.334-.79-1.994-1.167Zm3.143,1.884c.462-.909.924-1.816,1.4-2.725.674.433,1.36.877,2.034,1.342-.475.913-.964,1.816-1.44,2.723-.66-.469-1.334-.912-1.994-1.34ZM323.604,348.84c.317-6.542.62-13.089.937-19.631c7.806-3.364,15.625-6.676,23.391-9.193-1.744,7.935-3.474,15.865-5.217,23.794-6.353,1.223-12.732,3.106-19.111,5.03Zm22.201-5.576c1.982-8.131,3.949-16.263,5.917-24.399c7.766-2.233,15.506-3.543,23.206-3.193-3.394,9.163-6.775,18.325-10.183,27.483-6.273-1.125-12.587-.882-18.94.109Z" fill="#fff" class="ng-tns-c3866005367-2"></path><g _ngcontent-ng-c3866005367="" id="eCkoWnf75mb10_tr" transform="translate(277.268982,264.363678) rotate(0)" class="ng-tns-c3866005367-2"><path _ngcontent-ng-c3866005367="" d="M223.072,249.763c.29-8.611,7.488-15.364,16.1-15.08c8.598.279,15.347,7.486,15.07,16.091-.291,8.611-7.489,15.359-16.087,15.076-8.612-.279-15.361-7.482-15.083-16.087Zm10.566,46.134c.29-8.6,7.502-15.349,16.086-15.071c8.612.284,15.361,7.486,15.084,16.087-.278,8.611-7.489,15.359-16.087,15.081-8.598-.284-15.361-7.481-15.083-16.097Zm29.281-72.327c.277-8.611,7.475-15.359,16.087-15.08c8.611.284,15.347,7.48,15.07,16.096-.278,8.595-7.476,15.334-16.087,15.055-8.612-.284-15.361-7.475-15.07-16.071Zm23.985,74.066c.277-8.596,7.475-15.354,16.1-15.07c8.585.278,15.347,7.486,15.07,16.085-.278,8.617-7.502,15.359-16.1,15.077-8.612-.275-15.361-7.477-15.07-16.092Zm29.308-29.233c-8.612-.289-15.361-7.481-15.07-16.096.277-8.606,7.475-15.354,16.086-15.075c8.612.283,15.348,7.49,15.07,16.091-.277,8.611-7.475,15.364-16.086,15.08Zm-106.203-6.232c-1.215,37.151,27.908,68.251,65.061,69.458c37.153,1.218,68.243-27.911,69.459-65.063c1.215-37.15-27.921-68.245-65.074-69.468-37.14-1.212-68.231,27.921-69.446,65.073Z" transform="translate(-277.268982,-264.363678)" fill="#fff" class="ng-tns-c3866005367-2"></path></g><path _ngcontent-ng-c3866005367="" d="M403.184,161.901c87.012,4.154,167.327,18.383,234.963,40.015l-3.632,14.472c-64.321-20.667-140.542-34.505-223.314-39.106l-8.017-15.381ZM73.6152,198.279c68.3888-20.575,148.8758-33.736,235.6368-36.898l-7.925,15.271c-82.56,3.647-158.979,16.443-224.04,36.073l-3.6718-14.446Z" fill="#fff" class="ng-tns-c3866005367-2"></path><path _ngcontent-ng-c3866005367="" d="M369.872,145.764l24.024,53.372h-20.59l-4.042-8.999h-26.454l-4.042,8.999h-20.432l23.932-53.372h27.604Zm-20.736,28.968h13.802l-6.947-14.028-6.855,14.028Z" fill="#fff" class="ng-tns-c3866005367-2"></path></svg>